# xmcd CD database file
# Copyright (C) 1997 Ti Kan
# 
# Track frame offsets:
#     150
#     14972
#     54080
#     77020
#     87522
#     98215
#     118950
#     140775
#     154352
#     169325
#     190337
# 
# Disc length: 2828 seconds
# 
# Revision: 1
# Processed by: cddbd v1.4b41PL1 Copyright (c) Steve Scherf et al.
# Submitted via: DiscPlay 4.0.3
# 
DISCID=9e0b0a0b
DTITLE=Tonky Blues Band - Vudu Mama
DYEAR=1900
DGENRE=
TTITLE0=Ramblin On My Mind
TTITLE1=Long Distance Call
TTITLE2=Chica De Corazon Negro
TTITLE3=Crosscut Saw
TTITLE4=King Biscuit Time
TTITLE5=Ma ana Te Lo Digo
TTITLE6=Vudu Mamma
TTITLE7=Me Paso
TTITLE8=Stop Breaking Down
TTITLE9=Bluesbandeo
TTITLE10=Hochie Coochie Man (live)
EXTD=Music From Spain (CGC)
EXTT0=
EXTT1=
EXTT2=
EXTT3=
EXTT4=
EXTT5=
EXTT6=
EXTT7=
EXTT8=
EXTT9=
EXTT10=
PLAYORDER=
